<svg id="svg" version="1.1" xmlns="http://www.w3.org/2000/svg" xmlns:xlink="http://www.w3.org/1999/xlink" width="400" height="69.60000000000001" viewBox="0, 0, 400,69.60000000000001"><g id="svgg"><path id="path0" d="M70.945 4.767 C 58.546 8.110,53.150 14.310,55.426 22.600 L 56.030 24.800 51.415 24.758 C 47.056 24.718,46.896 24.649,48.536 23.503 C 50.163 22.366,50.201 22.118,49.136 19.571 C 48.496 18.038,48.000 14.222,48.000 10.826 L 48.000 4.800 44.512 4.800 C 42.593 4.800,39.353 5.029,37.312 5.309 L 33.600 5.817 33.600 9.709 C 33.600 11.849,33.240 13.600,32.800 13.600 C 32.360 13.600,32.000 13.285,32.000 12.901 C 32.000 12.516,31.093 10.580,29.986 8.597 L 27.971 4.993 20.386 8.293 C 11.316 12.239,11.473 11.243,18.800 18.347 C 22.100 21.547,24.800 24.308,24.800 24.483 C 24.800 24.657,20.300 24.800,14.800 24.800 L 4.800 24.800 4.800 27.981 L 4.800 31.162 18.534 31.381 C 33.878 31.626,37.921 32.970,26.054 33.882 C 15.720 34.677,9.939 37.427,7.165 42.869 C 0.622 55.701,15.393 66.790,33.287 62.479 C 37.168 61.544,37.526 61.598,40.399 63.547 C 44.650 66.433,46.093 66.226,51.892 61.900 C 52.053 61.780,51.153 60.782,49.892 59.681 L 47.600 57.681 49.290 56.472 C 53.875 53.193,53.109 46.247,47.863 43.524 C 39.486 39.176,28.701 45.782,32.200 53.118 C 33.732 56.332,33.428 56.800,29.805 56.800 C 25.934 56.800,22.400 53.165,22.400 49.182 C 22.400 42.451,31.000 38.182,44.560 38.182 C 49.769 38.182,51.808 37.918,51.449 37.291 C 51.168 36.801,50.277 35.444,49.469 34.277 C 47.403 31.290,47.488 31.200,52.400 31.200 L 56.800 31.200 56.800 48.000 L 56.800 64.800 64.800 64.800 L 72.800 64.800 72.800 47.981 L 72.800 31.161 86.200 31.381 L 99.600 31.600 99.850 33.765 L 100.099 35.929 93.450 35.481 C 78.798 34.494,68.649 47.631,77.346 56.327 C 86.085 65.067,100.377 55.584,94.779 44.760 C 93.589 42.457,93.607 42.400,95.514 42.400 C 99.949 42.400,100.000 42.532,100.000 54.086 L 100.000 64.800 107.600 64.800 L 115.200 64.800 115.200 48.000 L 115.200 31.200 128.400 31.200 L 141.600 31.200 141.600 33.451 L 141.600 35.702 136.885 35.361 C 131.425 34.966,127.355 36.100,123.951 38.964 C 113.117 48.080,122.008 64.472,136.940 62.912 C 140.746 62.514,141.600 62.642,141.600 63.612 C 141.600 64.583,143.059 64.800,149.600 64.800 C 157.092 64.800,157.600 64.697,157.600 63.185 C 157.600 61.807,157.923 61.660,159.800 62.185 C 169.116 64.790,178.851 59.237,179.805 50.775 C 180.882 41.219,173.574 34.700,162.486 35.325 C 157.619 35.599,157.597 35.590,157.599 33.400 L 157.600 31.200 169.200 31.200 L 180.800 31.200 180.800 28.000 L 180.800 24.800 148.800 24.800 C 131.200 24.800,116.800 24.643,116.800 24.452 C 116.800 24.261,117.184 23.094,117.653 21.860 C 122.646 8.727,94.485 -1.579,70.945 4.767 M93.749 10.428 C 99.553 12.040,102.607 18.664,99.555 23.022 C 97.989 25.257,75.444 25.822,73.659 23.671 C 66.851 15.468,80.204 6.666,93.749 10.428 M194.000 23.891 C 189.105 26.117,188.411 27.356,190.802 29.602 C 192.526 31.222,193.053 31.341,194.852 30.522 C 197.825 29.167,198.400 29.917,198.400 35.147 C 198.400 39.742,198.368 39.806,195.838 40.312 C 183.130 42.854,192.015 61.600,205.928 61.600 C 210.725 61.600,211.863 60.063,212.159 53.182 L 212.400 47.600 216.200 47.356 L 220.000 47.112 220.000 55.956 L 220.000 64.800 227.600 64.800 L 235.200 64.800 235.200 48.000 L 235.200 31.200 237.600 31.200 L 240.000 31.200 240.000 48.000 L 240.000 64.800 247.600 64.800 L 255.200 64.800 255.200 48.000 L 255.200 31.200 262.862 31.200 C 270.263 31.200,270.602 31.279,272.862 33.538 C 278.723 39.400,272.617 46.182,264.523 42.800 C 260.441 41.094,260.176 41.196,258.225 45.210 L 256.472 48.819 258.329 50.120 C 259.350 50.835,261.010 53.284,262.016 55.560 C 265.705 63.901,276.532 68.909,284.372 65.900 C 285.370 65.517,289.609 58.644,289.598 57.427 C 289.597 57.302,287.282 57.200,284.455 57.200 C 280.511 57.200,278.801 56.816,277.108 55.551 C 273.737 53.033,273.806 52.000,277.345 52.000 C 279.038 52.000,281.767 51.280,283.409 50.400 C 287.817 48.038,291.200 48.228,291.200 50.840 C 291.200 58.115,299.662 63.881,308.919 62.914 C 312.745 62.514,313.600 62.642,313.600 63.612 C 313.600 64.579,315.013 64.800,321.200 64.800 C 328.406 64.800,328.800 64.712,328.800 63.107 C 328.800 61.729,329.135 61.511,330.600 61.938 C 337.972 64.086,342.977 62.923,347.758 57.951 C 357.432 47.892,349.705 34.730,334.459 35.295 C 329.294 35.487,329.195 35.452,328.947 33.345 L 328.694 31.200 347.509 31.200 C 368.143 31.200,369.413 31.435,371.696 35.674 C 374.643 41.147,368.607 45.397,361.511 42.846 C 357.073 41.250,357.259 41.170,354.771 45.760 C 353.206 48.648,353.284 49.198,355.400 50.172 C 356.525 50.690,357.725 52.503,358.600 55.007 C 362.329 65.679,379.057 70.913,383.893 62.921 C 387.136 57.559,386.970 57.200,381.245 57.200 C 377.311 57.200,375.600 56.815,373.908 55.551 C 370.592 53.074,370.608 52.000,373.959 52.000 C 384.415 52.000,391.026 41.295,385.446 33.400 L 383.891 31.200 387.946 31.200 L 392.000 31.200 392.000 28.000 L 392.000 24.800 304.400 24.800 L 216.800 24.800 216.800 28.000 C 216.800 30.667,217.067 31.200,218.400 31.200 C 219.837 31.200,220.000 31.733,220.000 36.444 L 220.000 41.688 216.200 41.444 L 212.400 41.200 212.198 35.200 C 211.920 26.961,211.540 25.784,208.579 23.978 C 205.247 21.947,198.364 21.905,194.000 23.891 M313.600 33.426 L 313.600 35.652 308.106 35.342 C 301.520 34.970,296.383 36.865,293.535 40.717 C 291.033 44.101,289.574 43.979,290.149 40.435 C 290.464 38.494,290.095 36.706,288.912 34.435 L 287.226 31.200 300.413 31.200 L 313.600 31.200 313.600 33.426 M141.600 48.667 C 141.600 55.895,141.468 56.150,138.308 55.048 C 133.488 53.368,132.532 47.185,136.598 43.987 C 140.663 40.790,141.600 41.667,141.600 48.667 M162.692 44.058 C 166.205 46.821,164.831 55.200,160.865 55.200 C 160.461 55.200,159.561 55.419,158.865 55.686 C 157.772 56.105,157.600 55.236,157.600 49.286 C 157.600 41.581,158.443 40.715,162.692 44.058 M313.432 49.000 C 313.203 55.520,313.176 55.597,311.200 55.356 C 303.909 54.467,304.395 42.400,311.721 42.400 C 313.641 42.400,313.662 42.481,313.432 49.000 M334.692 44.058 C 338.831 47.314,336.875 54.387,331.555 55.404 C 328.885 55.915,328.800 55.707,328.800 48.667 C 328.800 41.599,330.187 40.514,334.692 44.058 " stroke="none" fill="#000000" fill-rule="evenodd"></path></g></svg>