<?xml version="1.0" encoding="UTF-8" standalone="no"?>
<!-- Created with Inkscape (http://www.inkscape.org/) -->

<svg
   xmlns:dc="http://purl.org/dc/elements/1.1/"
   xmlns:cc="http://creativecommons.org/ns#"
   xmlns:rdf="http://www.w3.org/1999/02/22-rdf-syntax-ns#"
   xmlns:svg="http://www.w3.org/2000/svg"
   xmlns="http://www.w3.org/2000/svg"
   xmlns:sodipodi="http://sodipodi.sourceforge.net/DTD/sodipodi-0.dtd"
   xmlns:inkscape="http://www.inkscape.org/namespaces/inkscape"
   width="400.11459"
   height="190.72462"
   id="svg12841"
   version="1.1"
   inkscape:version="0.47 r22583"
   sodipodi:docname="New document 3">
  <defs
     id="defs12843">
    <inkscape:perspective
       sodipodi:type="inkscape:persp3d"
       inkscape:vp_x="0 : 526.18109 : 1"
       inkscape:vp_y="0 : 1000 : 0"
       inkscape:vp_z="744.09448 : 526.18109 : 1"
       inkscape:persp3d-origin="372.04724 : 350.78739 : 1"
       id="perspective12849" />
    <inkscape:perspective
       id="perspective12830"
       inkscape:persp3d-origin="0.5 : 0.33333333 : 1"
       inkscape:vp_z="1 : 0.5 : 1"
       inkscape:vp_y="0 : 1000 : 0"
       inkscape:vp_x="0 : 0.5 : 1"
       sodipodi:type="inkscape:persp3d" />
  </defs>
  <sodipodi:namedview
     id="base"
     pagecolor="#ffffff"
     bordercolor="#666666"
     borderopacity="1.0"
     inkscape:pageopacity="0.0"
     inkscape:pageshadow="2"
     inkscape:zoom="1.979899"
     inkscape:cx="123.61162"
     inkscape:cy="57.780543"
     inkscape:document-units="px"
     inkscape:current-layer="layer1"
     showgrid="false"
     inkscape:window-width="1280"
     inkscape:window-height="750"
     inkscape:window-x="-8"
     inkscape:window-y="-8"
     inkscape:window-maximized="1" />
  <metadata
     id="metadata12846">
    <rdf:RDF>
      <cc:Work
         rdf:about="">
        <dc:format>image/svg+xml</dc:format>
        <dc:type
           rdf:resource="http://purl.org/dc/dcmitype/StillImage" />
        <dc:title></dc:title>
      </cc:Work>
    </rdf:RDF>
  </metadata>
  <g
     inkscape:label="Layer 1"
     inkscape:groupmode="layer"
     id="layer1"
     transform="translate(-305.44881,-272.87999)">
    <g
       transform="matrix(1.2336651,0,0,-1.2336651,-103.54818,2127.5721)"
       id="g12814">
      <path
         id="path36"
         style="fill:#661773;fill-opacity:1;fill-rule:nonzero;stroke:none"
         d="m 331.53,1503.4 104.23,0 0,-154.32 -104.23,0 0,154.32 z" />
      <path
         id="path38"
         style="fill:#faa61a;fill-opacity:1;fill-rule:nonzero;stroke:none"
         d="m 441.58,1503.4 104.23,0 0,-154.32 -104.23,0 0,154.32 z" />
      <path
         id="path40"
         style="fill:#661773;fill-opacity:1;fill-rule:nonzero;stroke:none"
         d="m 551.63,1503.4 104.23,0 0,-154.32 -104.23,0 0,154.32 z" />
      <path
         id="path42"
         style="fill:#ffffff;fill-opacity:1;fill-rule:evenodd;stroke:none"
         d="m 339.15,1348.8 0,100.67 37.4,0 c 14.71,0 26.45,-1.9 37.45,-12.25 10.7,-9.91 15.6,-23.76 15.6,-38.2 0,-13.26 -4.75,-27.11 -14.11,-36.62 -10.11,-10.39 -22.74,-13.6 -36.86,-13.6 l -39.48,0 z m 31.16,23.11 4.46,0 c 4.16,0 6.83,-0.29 10.7,1.77 2.82,1.62 5.05,3.83 6.68,6.63 3.57,5.89 4.76,12.67 4.76,19.45 0,6.78 -1.93,15.62 -6.24,21.22 -4.9,6.03 -9.66,5.74 -16.79,5.74 l -3.57,0 0,-54.81" />
      <path
         id="path44"
         style="fill:#ffffff;fill-opacity:1;fill-rule:evenodd;stroke:none"
         d="m 537.26,1348.8 -25.36,0 -29.61,47.1 -7.13,12.2 0.06,-12.29 0,-47.01 -25.22,0 0,100.67 29.43,0 32.43,-52.71 0.19,0.27 0,52.44 25.21,0 0,-100.67" />
      <path
         id="path46"
         style="fill:#ffffff;fill-opacity:1;fill-rule:evenodd;stroke:none"
         d="m 620.12,1348.89 -5.79,19.85 -27.18,0 -6.24,-19.85 -25.4,0 31.64,100.67 32.97,0 31.94,-100.67 -31.94,0 z m -27.77,41.86 16.63,0 -8.31,29.21 -8.32,-29.21" />
    </g>
  </g>
</svg>
