<svg id="svg" xmlns="http://www.w3.org/2000/svg" xmlns:xlink="http://www.w3.org/1999/xlink" width="400" height="79.2" viewBox="0, 0, 400,79.2"><g id="svgg"><path id="path0" d="M283.747 2.759 C 276.107 5.484,272.036 15.049,275.605 21.891 C 276.262 23.152,276.800 24.322,276.800 24.491 C 276.800 24.661,267.440 24.800,256.000 24.800 L 235.200 24.800 235.200 29.200 L 235.200 33.600 238.400 33.600 L 241.600 33.600 241.600 41.626 C 241.600 55.105,248.444 64.376,257.331 62.934 L 260.000 62.501 260.000 67.144 L 260.000 71.787 264.200 73.564 C 266.510 74.542,268.850 75.528,269.400 75.756 C 270.185 76.082,270.400 71.593,270.400 54.840 L 270.400 33.508 273.800 33.754 L 277.200 34.000 277.415 53.017 L 277.629 72.033 282.114 74.017 C 284.581 75.107,286.734 76.000,286.900 76.000 C 287.065 76.000,287.200 66.460,287.200 54.800 L 287.200 33.600 301.625 33.600 C 318.053 33.600,317.000 33.076,316.639 41.066 L 316.400 46.373 312.217 43.454 C 306.394 39.390,301.006 38.929,294.804 41.963 L 290.389 44.123 292.994 47.760 C 296.263 52.323,296.719 52.482,300.691 50.456 C 304.656 48.433,308.310 48.393,311.955 50.334 L 314.709 51.801 309.734 54.901 C 306.997 56.605,302.442 59.454,299.612 61.232 L 294.466 64.463 297.525 68.015 L 300.584 71.567 303.692 69.369 C 305.402 68.161,309.050 65.537,311.800 63.539 L 316.800 59.906 316.800 65.981 L 316.800 72.057 320.600 73.794 C 322.690 74.749,324.670 75.666,325.000 75.832 C 325.330 75.998,325.600 66.554,325.600 54.846 L 325.600 33.558 337.800 33.779 L 350.000 34.000 350.240 38.608 L 350.480 43.216 346.684 40.808 C 338.054 35.335,330.026 40.321,330.595 50.800 C 331.243 62.714,338.415 68.467,348.553 65.202 C 350.170 64.682,350.325 64.932,350.553 68.425 C 350.796 72.155,350.862 72.239,355.000 74.060 L 359.200 75.909 359.200 66.448 L 359.200 56.986 362.402 54.093 C 370.005 47.224,372.972 54.001,366.359 63.130 C 363.303 67.349,363.297 67.324,368.093 70.305 C 372.713 73.177,373.298 72.927,375.358 67.200 C 379.770 54.936,373.404 40.960,363.802 41.831 L 359.121 42.255 359.361 38.128 L 359.600 34.000 370.400 34.000 L 381.200 34.000 381.600 53.018 L 382.000 72.036 386.279 74.018 C 388.633 75.108,390.703 76.000,390.879 76.000 C 391.056 76.000,391.200 66.460,391.200 54.800 L 391.200 33.600 394.800 33.600 L 398.400 33.600 398.400 29.200 L 398.400 24.800 358.276 24.800 C 319.321 24.800,318.191 24.757,319.488 23.323 C 320.742 21.938,320.717 21.703,319.081 19.523 C 308.574 5.524,294.594 -1.109,283.747 2.759 M301.154 12.851 C 305.736 14.566,316.850 22.050,317.412 23.800 C 317.662 24.578,314.012 24.800,300.937 24.800 L 284.141 24.800 283.628 21.764 C 282.120 12.840,290.175 8.744,301.154 12.851 M135.429 24.561 C 134.455 24.749,132.527 25.960,131.145 27.252 C 128.043 30.150,128.000 30.149,128.000 27.200 L 128.000 24.800 67.600 24.800 L 7.200 24.800 7.200 29.200 L 7.200 33.600 12.000 33.600 L 16.800 33.600 16.800 39.200 L 16.800 44.800 13.760 44.800 C 5.670 44.800,6.621 49.774,17.504 64.379 L 26.207 76.059 28.673 73.984 L 31.139 71.909 25.633 64.959 L 20.128 58.010 22.664 55.896 L 25.200 53.781 25.600 43.891 L 26.000 34.000 31.600 34.000 L 37.200 34.000 37.600 53.102 L 38.000 72.204 42.187 74.051 L 46.374 75.898 46.587 54.949 L 46.800 34.000 65.200 34.000 L 83.600 34.000 83.844 37.800 L 84.088 41.600 74.972 41.600 C 66.110 41.600,65.832 41.654,64.976 43.533 C 64.296 45.026,64.334 45.557,65.144 45.868 C 68.641 47.210,71.877 60.178,69.257 62.352 C 66.438 64.692,58.616 56.171,54.778 46.579 C 53.166 42.551,49.151 43.019,50.123 47.121 C 51.113 51.305,54.516 58.907,57.232 63.002 C 67.635 78.688,82.789 72.655,77.331 55.000 L 76.157 51.200 80.078 51.200 L 84.000 51.200 84.000 61.610 L 84.000 72.020 88.500 74.010 C 90.974 75.105,93.134 76.000,93.300 76.000 C 93.465 76.000,93.600 66.460,93.600 54.800 L 93.600 33.600 99.467 33.600 C 106.561 33.600,106.058 33.123,105.732 39.530 L 105.463 44.800 102.892 44.800 C 99.649 44.800,98.400 46.037,98.400 49.248 C 98.400 51.921,98.681 52.394,108.858 66.834 L 115.330 76.017 117.665 74.354 C 120.847 72.088,120.727 71.712,114.450 64.297 L 108.946 57.793 111.303 56.050 L 113.661 54.307 116.325 55.954 C 119.332 57.812,123.669 58.081,126.899 56.609 C 128.667 55.804,129.139 55.818,129.429 56.687 C 131.753 63.658,143.570 68.760,151.200 66.085 C 156.086 64.372,156.000 64.331,156.000 68.410 L 156.000 72.020 160.500 74.010 C 162.974 75.105,165.134 76.000,165.300 76.000 C 165.465 76.000,165.600 66.439,165.600 54.754 L 165.600 33.508 169.000 33.754 L 172.400 34.000 172.615 53.052 L 172.829 72.103 177.015 73.951 L 181.200 75.799 181.600 54.900 L 182.000 34.000 193.563 33.777 C 207.741 33.504,206.858 33.143,206.530 39.072 L 206.260 43.950 196.952 44.175 C 186.124 44.437,185.145 45.120,186.522 51.457 C 188.821 62.040,198.400 66.225,198.400 56.647 L 198.400 53.600 202.374 53.600 L 206.348 53.600 206.574 62.600 L 206.800 71.600 211.200 73.697 L 215.600 75.795 216.000 54.897 L 216.400 34.000 220.200 33.756 L 224.000 33.512 224.000 29.156 L 224.000 24.800 187.600 24.800 L 151.200 24.800 151.200 29.147 C 151.200 33.294,151.301 33.505,153.400 33.747 L 155.600 34.000 155.827 42.107 C 156.094 51.638,154.850 53.946,147.633 57.307 C 139.085 61.287,134.056 58.849,141.128 54.153 C 153.369 46.025,153.526 31.443,141.440 25.129 C 139.263 23.992,138.662 23.935,135.429 24.561 M142.710 34.602 C 143.762 36.270,140.934 43.475,139.088 43.831 C 137.023 44.228,135.576 39.754,136.808 36.781 C 138.408 32.918,141.036 31.947,142.710 34.602 M128.000 36.643 C 128.000 39.931,131.790 46.863,134.065 47.736 C 136.028 48.489,133.797 49.573,130.254 49.588 C 128.035 49.597,127.186 49.217,126.816 48.050 C 126.332 46.525,126.277 46.527,123.549 48.136 C 121.492 49.350,120.053 49.638,117.987 49.250 L 115.200 48.727 115.200 41.697 C 115.200 33.228,114.881 33.600,122.133 33.600 L 128.000 33.600 128.000 36.643 M260.632 41.048 L 260.864 48.096 258.112 50.848 C 252.281 56.679,250.400 54.733,250.400 42.868 C 250.400 33.251,250.270 33.463,255.968 33.765 L 260.400 34.000 260.632 41.048 M347.755 49.942 L 350.000 51.884 347.207 54.779 C 343.193 58.941,338.923 58.677,338.554 54.246 C 338.084 48.588,343.346 46.127,347.755 49.942 " stroke="none" fill="#000000" fill-rule="evenodd"></path></g></svg>